<svg width="121" height="121" viewBox="0 0 121 121" fill="none" xmlns="http://www.w3.org/2000/svg">
<g id="right-down 1">
<g id="Group">
<path id="Vector" d="M17.6457 105.871H83.1874C84.5789 105.871 85.7083 104.742 85.7083 103.351C85.7083 101.959 84.5789 100.83 83.1874 100.83H20.1666V37.8087C20.1666 36.4172 19.0372 35.2879 17.6457 35.2879C16.2542 35.2879 15.1249 36.4172 15.1249 37.8087V103.351C15.1249 104.742 16.2542 105.871 17.6457 105.871Z" fill="#E5E4E2"/>
<path id="Vector_2" d="M17.6458 105.871C18.2911 105.871 18.9365 105.624 19.4305 105.135L105.139 19.4268C106.122 18.4437 106.122 16.8455 105.139 15.8623C104.156 14.8792 102.558 14.8792 101.574 15.8623L15.8661 101.57C14.8829 102.554 14.8829 104.152 15.8661 105.135C16.3551 105.624 17.0005 105.871 17.6458 105.871Z" fill="#E5E4E2"/>
</g>
</g>
</svg>
